<svg width="35" height="35" viewBox="0 0 35 35" fill="none" xmlns="http://www.w3.org/2000/svg">
<path d="M21.8743 33.1769H13.1243C5.2056 33.1769 1.82227 29.7936 1.82227 21.8748V13.1248C1.82227 5.20609 5.2056 1.82275 13.1243 1.82275H20.416C21.0139 1.82275 21.5098 2.31859 21.5098 2.9165C21.5098 3.51442 21.0139 4.01025 20.416 4.01025H13.1243C6.40143 4.01025 4.00977 6.40192 4.00977 13.1248V21.8748C4.00977 28.5978 6.40143 30.9894 13.1243 30.9894H21.8743C28.5973 30.9894 30.9889 28.5978 30.9889 21.8748V14.5832C30.9889 13.9853 31.4848 13.4894 32.0827 13.4894C32.6806 13.4894 33.1764 13.9853 33.1764 14.5832V21.8748C33.1764 29.7936 29.7931 33.1769 21.8743 33.1769Z" fill="#292D32"/>
<path d="M32.0827 15.677H26.2493C21.2618 15.677 19.3223 13.7374 19.3223 8.74988V2.91655C19.3223 2.47905 19.5848 2.07072 19.9931 1.9103C20.4014 1.7353 20.8681 1.83738 21.1889 2.14363L32.8556 13.8103C33.1618 14.1165 33.2639 14.5978 33.0889 15.0061C32.9139 15.4145 32.5202 15.677 32.0827 15.677ZM21.5098 5.55613V8.74988C21.5098 12.5124 22.4868 13.4895 26.2493 13.4895H29.4431L21.5098 5.55613Z" fill="#292D32"/>
<path d="M18.959 20.0522H10.209C9.61107 20.0522 9.11523 19.5564 9.11523 18.9585C9.11523 18.3606 9.61107 17.8647 10.209 17.8647H18.959C19.5569 17.8647 20.0527 18.3606 20.0527 18.9585C20.0527 19.5564 19.5569 20.0522 18.959 20.0522Z" fill="#292D32"/>
<path d="M16.0423 25.8855H10.209C9.61107 25.8855 9.11523 25.3897 9.11523 24.7917C9.11523 24.1938 9.61107 23.698 10.209 23.698H16.0423C16.6402 23.698 17.1361 24.1938 17.1361 24.7917C17.1361 25.3897 16.6402 25.8855 16.0423 25.8855Z" fill="#292D32"/>
</svg>
