<svg width="40" height="40" viewBox="0 0 40 40" fill="none" xmlns="http://www.w3.org/2000/svg">
<g clip-path="url(#clip0_2_29)">
<path d="M23.7093 39.6919C22.4029 39.6919 21.2316 39.6753 20.7988 39.6685L3.78247 39.5777L3.80288 33.0232L20.8624 33.079L20.8837 33.0793C22.9782 33.1129 26.3502 33.1165 27.2888 33.0193C33.1558 32.4114 33.1601 28.7407 33.1617 27.5343C33.1625 26.932 32.8766 25.6632 32.0863 24.6359C31.1381 23.4035 29.7168 22.7966 27.7415 22.7802C25.7376 22.7637 24.4825 22.7632 23.1535 22.7626C22.3496 22.7623 21.5182 22.762 20.4673 22.7582C19.095 22.7534 17.7311 22.5102 16.4133 22.0356C15.0655 21.55 13.8407 20.8485 12.7729 19.9504C10.3379 17.9021 8.97492 15.0257 8.93519 11.8508C8.89781 8.85901 10.0992 6.00955 12.3182 3.82717C13.4542 2.71004 14.8405 1.79917 16.3273 1.19317C17.0774 0.887365 17.8548 0.657271 18.6374 0.50912C19.4488 0.355516 20.2688 0.289464 21.0744 0.312987C24.4367 0.410976 28.1923 0.420634 28.2299 0.420634L28.2149 7.01031C28.058 7.01 24.3325 7.00034 20.8825 6.89986C19.5103 6.85998 17.9992 7.48281 16.9391 8.52532C16.2834 9.17026 15.5057 10.2564 15.5246 11.7684C15.5624 14.7914 18.4514 16.1614 20.4908 16.1686C21.5315 16.1723 22.3574 16.1726 23.1561 16.1729C24.4985 16.1734 25.7663 16.1739 27.7962 16.1907C29.9083 16.2081 31.8297 16.6421 33.5069 17.4807C35.0043 18.2293 36.2836 19.2847 37.309 20.6175C38.141 21.6989 38.7799 22.9262 39.2078 24.2653C39.5647 25.3821 39.7528 26.5153 39.7515 27.5424C39.7473 30.9689 38.5646 33.9091 36.3311 36.0454C35.2705 37.0599 33.9869 37.8782 32.516 38.4778C31.1521 39.0338 29.622 39.4026 27.968 39.5739C27.0618 39.6679 25.2871 39.6919 23.7093 39.6919Z" fill="url(#paint0_linear_2_29)"/>
<path d="M3.85843 39.5784C5.66874 39.5784 7.13629 38.1109 7.13629 36.3006C7.13629 34.4903 5.66874 33.0227 3.85843 33.0227C2.04811 33.0227 0.580566 34.4903 0.580566 36.3006C0.580566 38.1109 2.04811 39.5784 3.85843 39.5784Z" fill="#2B87FA"/>
<path d="M7.10518 3.27787V28.4972C6.92649 30.117 5.58332 31.386 3.93123 31.4488C3.92001 31.4493 3.90879 31.4496 3.89758 31.4499C3.89104 31.4501 3.88449 31.4502 3.87795 31.4504C3.85287 31.451 3.82779 31.4513 3.80271 31.4513H3.79242C1.96196 31.4457 0.47998 29.9603 0.47998 28.1286V3.64646C0.47998 1.81132 1.96757 0.32373 3.80271 0.32373C5.51322 0.32373 6.92182 1.61612 7.10518 3.27787Z" fill="#CDD2D4"/>
<path d="M2.69116 36.3518L1.87158 38.3496L6.55851 36.3518L1.87158 34.2517L2.69116 36.3518Z" fill="white"/>
</g>
<defs>
<linearGradient id="paint0_linear_2_29" x1="28.6569" y1="1.69704" x2="20.1625" y2="37.3478" gradientUnits="userSpaceOnUse">
<stop offset="0.1102" stop-color="#2C88F7"/>
<stop offset="0.1601" stop-color="#369CE0"/>
<stop offset="0.2953" stop-color="#4DCEA8"/>
<stop offset="0.3958" stop-color="#5CED84"/>
<stop offset="0.4496" stop-color="#62F977"/>
<stop offset="0.5183" stop-color="#6BF67F"/>
<stop offset="0.6307" stop-color="#84ED93"/>
<stop offset="0.772" stop-color="#ABDEB5"/>
<stop offset="0.8874" stop-color="#D1D0D5"/>
<stop offset="1" stop-color="#D1D0D5"/>
</linearGradient>
<clipPath id="clip0_2_29">
<rect width="40" height="40" fill="white"/>
</clipPath>
</defs>
</svg>
